<svg width="14" height="14" viewBox="0 0 14 14" fill="none" xmlns="http://www.w3.org/2000/svg">
<path fill-rule="evenodd" clip-rule="evenodd" d="M7.27389 10.2259C7.44475 10.3967 7.72176 10.3967 7.89261 10.2259L10.8093 7.3092C10.9801 7.13834 10.9801 6.86133 10.8093 6.69048L7.89261 3.77381C7.72176 3.60296 7.44475 3.60296 7.27389 3.77381C7.10304 3.94466 7.10304 4.22168 7.27389 4.39253L9.8812 6.99984L7.27389 9.60714C7.10304 9.778 7.10304 10.055 7.27389 10.2259Z" fill="#3250A5"/>
<path fill-rule="evenodd" clip-rule="evenodd" d="M3.0625 7C3.0625 7.24162 3.25838 7.4375 3.5 7.4375L10.5 7.4375C10.7416 7.4375 10.9375 7.24162 10.9375 7C10.9375 6.75838 10.7416 6.5625 10.5 6.5625L3.5 6.5625C3.25838 6.5625 3.0625 6.75838 3.0625 7Z" fill="#3250A5"/>
</svg>
