<svg width="14" height="14" viewBox="0 0 14 14" fill="none" xmlns="http://www.w3.org/2000/svg">
<path fill-rule="evenodd" clip-rule="evenodd" d="M6.72603 10.2259C6.89688 10.055 6.89688 9.778 6.72603 9.60714L4.11872 6.99984L6.72603 4.39253C6.89688 4.22168 6.89688 3.94466 6.72603 3.77381C6.55517 3.60296 6.27816 3.60296 6.10731 3.77381L3.19064 6.69048C3.01979 6.86133 3.01979 7.13834 3.19064 7.3092L6.10731 10.2259C6.27816 10.3967 6.55517 10.3967 6.72603 10.2259Z" fill="#F6F9FC"/>
<path fill-rule="evenodd" clip-rule="evenodd" d="M3.0625 7C3.0625 7.24162 3.25838 7.4375 3.5 7.4375L10.5 7.4375C10.7416 7.4375 10.9375 7.24162 10.9375 7C10.9375 6.75838 10.7416 6.5625 10.5 6.5625L3.5 6.5625C3.25838 6.5625 3.0625 6.75838 3.0625 7Z" fill="#F6F9FC"/>
</svg>
