<svg width="274" height="274" viewBox="0 0 247 101" fill="none" xmlns="http://www.w3.org/2000/svg">
<path d="M171.598 1.55405C171.539 1.55405 171.598 25.9907 171.598 26.1361H183.16V99.4459H194.781V26.1361H206.402C206.461 26.1361 206.402 1.55405 206.402 1.55405H171.598Z" fill="#10238C"></path>
<path d="M78.1605 99.4459C83.7363 67.4456 89.4881 34.1362 94.5943 1.55405H82.1516C78.8061 22.4997 71.8805 65.8456 71.8805 65.8456C68.4177 45.3363 65.2483 22.2088 61.5507 1.55405H49.5189C54.5664 34.4271 59.9661 67.4456 65.6592 99.4459H78.1605Z" fill="#10238C"></path>
<path d="M162.031 62.5001L161.738 61.3365C166.903 54.2091 169.779 37.6271 168.839 26.427C166.727 1.55403 157.571 1.55405 154.871 1.55405C151.819 1.55405 136.031 1.55405 136.031 1.55405V99.4459H147.476V58.7183L161.151 99.4459H175.178L162.031 62.5001ZM152.641 45.7727C151.056 45.7727 147.417 45.7727 147.417 45.7727V23.227C147.417 23.227 151.232 23.227 152.641 23.227C154.577 23.227 157.629 26.2816 157.629 34.5726C157.629 42.8636 154.225 45.7727 152.641 45.7727Z" fill="#10238C"></path>
<path d="M116.486 1.55405H104.337L87.6686 99.4459H99.3483L101.872 86.3549H118.717L121.593 99.4459H133.8C133.8 99.4459 122.297 33.4089 116.486 1.55405ZM105.804 63.6638L110.265 32.5362L115.254 63.6638H105.804Z" fill="#10238C"></path>
<path d="M229.057 1.55405H216.908L200.24 99.4459H211.919L214.443 86.3549H231.288L234.164 99.4459H246.371C246.371 99.4459 234.868 33.4089 229.057 1.55405ZM218.375 63.6638L222.836 32.5362L227.884 63.6638H218.375Z" fill="#10238C"></path>
<path d="M0.687256 4.60861H37.6044V96.5368H0.687256V4.60861Z" fill="#10238C"></path>
<path d="M19.1165 85.9185L0.628571 4.60861H37.6044L19.1165 85.9185Z" fill="#FFC907"></path>
<path d="M19.1165 85.9185L0.804642 5.19045ZM37.4871 5.19045L19.1165 85.9185Z" fill="black"></path>
</svg>