<svg width="274" height="274" viewBox="0 0 154 151" fill="none" xmlns="http://www.w3.org/2000/svg">
<path d="M76.9908 150.038C119.522 150.038 154 116.397 154 75.0281C154 33.5823 119.522 -6.747e-06 76.9908 -6.747e-06C34.464 -6.747e-06 0 33.5823 0 75.0281C0 116.397 34.464 150.038 76.9908 150.038Z" fill="#C4084F"></path>
<path d="M73.8883 42.061V107.901H95.3338V101.987H80.0887V42.061H73.8883Z" fill="white"></path>
<path d="M52.3875 60.0603C57.4723 60.0603 61.6581 56.0365 61.6581 51.0696C61.6581 46.0759 57.4723 42.0431 52.3875 42.0431C47.3027 42.0431 43.1446 46.0759 43.1446 51.0696C43.1446 56.0365 47.3027 60.0603 52.3875 60.0603Z" fill="white"></path>
<path d="M80.0886 12.2779C79.245 12.2554 77.7837 12.2554 76.9908 12.2554C41.4434 12.2554 12.5253 40.368 12.5253 75.0146C12.5253 91.7699 19.2465 107.555 31.3845 119.397C43.5824 131.267 59.7311 137.864 76.9908 137.864C94.2135 137.864 110.385 131.267 122.574 119.397C134.712 107.555 141.396 91.7699 141.396 75.0146V72.145H95.3937V77.9741H135.293C135.293 78.0908 135.265 78.733 135.265 78.8632C133.301 108.507 107.845 131.904 76.9908 131.904C61.4091 131.904 46.6757 126.012 35.6626 115.293C24.6356 104.551 18.5273 90.2205 18.5273 75.0101C18.5273 59.8132 24.6356 45.51 35.6626 34.7724C46.6757 24.0079 61.4091 18.08 76.9908 18.08C77.6823 18.08 79.3234 18.116 80.0886 18.1295V12.2779Z" fill="white"></path>
</svg>