<svg version="1.1" id="Layer_1" xmlns="http://www.w3.org/2000/svg" xmlns:xlink="http://www.w3.org/1999/xlink" x="0px" y="0px" viewBox="0 0 780 220" style="enable-background:new 0 0 780 220;" xml:space="preserve">
                                            <style type="text/css">
                                                .st0{display:none;}
                                                .st1{fill:#F37321;}
                                                .st2{fill:#5F6062;}
                                            </style>
                                                <g>
                                                    <g>
                                                        <g>
                                                            <path class="st1" d="M66.1,190c-25.9,0-49.5-14.9-60.7-38.4c-1.9-4.1-0.2-9,3.9-10.9c4.1-1.9,9-0.2,10.9,3.9
                                                                c8.8,18.5,27.6,29.9,48,29c19-0.8,35.8-11.9,43.9-29.1c1.9-4.1,6.8-5.8,10.9-3.9c4.1,1.9,5.8,6.8,3.9,10.9
                                                                c-10.7,22.7-32.9,37.4-58,38.5C68,190,67.1,190,66.1,190z"></path>
                                                        </g>
                                                        <g>
                                                            <path class="st1" d="M124,129.6H8.2c-4.5,0-8.2-3.7-8.2-8.2s3.7-8.2,8.2-8.2h107c-4-24.1-25-42.5-50.1-42.5
                                                                c-19,0-36.2,10.4-45,27.3c-2.1,4-7,5.6-11.1,3.5c-4-2.1-5.6-7-3.5-11.1c11.6-22.2,34.5-36,59.5-36c37,0,67.1,30.1,67.2,67.1
                                                                c0,2.2-0.9,4.3-2.4,5.8C128.3,128.7,126.2,129.6,124,129.6z"></path>
                                                        </g>
                                                    </g>
                                                    <path class="st2" d="M231,151.5h-43v-23.8h30.5c4.1,0,7.4-3.3,7.4-7.4c0-4.1-3.3-7.4-7.4-7.4H188V92.3h39.9c4.1,0,7.4-3.3,7.4-7.4
                                                        c0-4.1-3.3-7.4-7.4-7.4h-47.3c-4.1,0-7.4,3.3-7.4,7.4v74c0,4.1,3.3,7.4,7.4,7.4H231c4.1,0,7.4-3.3,7.4-7.4
                                                        C238.4,154.8,235.1,151.5,231,151.5z"></path>
                                                    <path class="st2" d="M752.6,151.5h-43v-23.8h30.5c4.1,0,7.4-3.3,7.4-7.4c0-4.1-3.3-7.4-7.4-7.4h-30.5V92.3h39.8
                                                        c4.1,0,7.4-3.3,7.4-7.4c0-4.1-3.3-7.4-7.4-7.4h-47.3c-4.1,0-7.4,3.3-7.4,7.4v74c0,4.1,3.3,7.4,7.4,7.4h50.4c4.1,0,7.4-3.3,7.4-7.4
                                                        C760,154.8,756.7,151.5,752.6,151.5z"></path>
                                                    <path class="st2" d="M599.2,156l-8.6-20.3c0,0,0-0.1,0-0.1L568,82c0-0.1-0.1-0.2-0.1-0.2c-0.1-0.1-0.1-0.3-0.2-0.4
                                                        c-0.1-0.1-0.1-0.2-0.2-0.3c-0.1-0.1-0.1-0.2-0.2-0.3c-0.1-0.1-0.1-0.2-0.2-0.3c-0.1-0.1-0.1-0.2-0.2-0.3c-0.1-0.1-0.2-0.2-0.2-0.3
                                                        c-0.1-0.1-0.2-0.2-0.2-0.3c-0.1-0.1-0.2-0.2-0.3-0.2c-0.1-0.1-0.2-0.2-0.3-0.2c-0.1-0.1-0.2-0.1-0.3-0.2c-0.1-0.1-0.2-0.1-0.3-0.2
                                                        c-0.1-0.1-0.2-0.1-0.3-0.2c-0.1-0.1-0.2-0.1-0.3-0.2c-0.1-0.1-0.2-0.1-0.4-0.2c-0.1,0-0.2-0.1-0.2-0.1c0,0,0,0,0,0
                                                        c-0.1-0.1-0.3-0.1-0.4-0.1c-0.1,0-0.2-0.1-0.3-0.1c-0.1,0-0.2-0.1-0.3-0.1c-0.5-0.1-1-0.2-1.6-0.2c-0.1,0-0.2,0-0.3,0
                                                        c-0.1,0-0.1,0-0.2,0c-0.6,0-1.1,0.1-1.7,0.2c-0.1,0-0.2,0-0.3,0.1c-0.1,0-0.2,0.1-0.3,0.1c-0.1,0-0.2,0.1-0.4,0.1c0,0,0,0-0.1,0
                                                        c-0.1,0-0.2,0.1-0.3,0.1c-0.1,0.1-0.2,0.1-0.3,0.2c-0.1,0.1-0.2,0.1-0.3,0.2c-0.1,0.1-0.2,0.1-0.3,0.2c-0.1,0.1-0.2,0.2-0.3,0.2
                                                        c-0.1,0.1-0.2,0.1-0.3,0.2c-0.1,0.1-0.2,0.2-0.3,0.3c-0.1,0.1-0.2,0.2-0.2,0.2c-0.1,0.1-0.2,0.2-0.3,0.3c-0.1,0.1-0.2,0.2-0.2,0.3
                                                        c-0.1,0.1-0.1,0.2-0.2,0.3c-0.1,0.1-0.1,0.2-0.2,0.3c-0.1,0.1-0.1,0.2-0.2,0.3c-0.1,0.1-0.1,0.2-0.2,0.3c-0.1,0.1-0.1,0.3-0.2,0.4
                                                        c0,0.1-0.1,0.1-0.1,0.2l-22.6,53.6c0,0,0,0.1,0,0.1l-8.6,20.3c-1.6,3.8,0.2,8.1,3.9,9.7c0.9,0.4,1.9,0.6,2.9,0.6
                                                        c2.9,0,5.6-1.7,6.8-4.5l6.7-15.8h35.4l6.7,15.8c1.2,2.8,3.9,4.5,6.8,4.5c1,0,1.9-0.2,2.9-0.6C599,164.1,600.8,159.8,599.2,156z
                                                        M549.7,131.1l11.4-27.1l11.4,27.1H549.7z"></path>
                                                    <g>
                                                        <g>
                                                            <path class="st2" d="M322.3,166.3h-1.9c-2.3,0-4.4-1.1-5.8-2.9l-46-59v54.4c0,4.1-3.3,7.4-7.4,7.4c-4.1,0-7.4-3.3-7.4-7.4v-74
                                                                c0-4.1,3.3-7.4,7.4-7.4h1.6c2.3,0,4.4,1.1,5.8,2.9l46.4,59.4V84.9c0-4.1,3.3-7.4,7.4-7.4s7.4,3.3,7.4,7.4v74
                                                                C329.8,163,326.4,166.3,322.3,166.3z"></path>
                                                        </g>
                                                    </g>
                                                    <path class="st2" d="M499.8,77.5c-4.1,0-7.4,3.3-7.4,7.4v28h-42.2v-28c0-4.1-3.3-7.4-7.4-7.4s-7.4,3.3-7.4,7.4v35.3c0,0,0,0,0,0
                                                        s0,0,0,0v38.6c0,4.1,3.3,7.4,7.4,7.4s7.4-3.3,7.4-7.4v-31.2h42.2v31.2c0,4.1,3.3,7.4,7.4,7.4s7.4-3.3,7.4-7.4v-74
                                                        C507.2,80.8,503.9,77.5,499.8,77.5z"></path>
                                                    <g>
                                                        <g>
                                                            <path class="st2" d="M643.6,167.9c-11.2,0-22.6-4.4-30.5-12.3c-2.9-2.9-2.9-7.6,0-10.5c2.9-2.9,7.6-2.9,10.5,0
                                                                c7.9,7.9,19.8,9.4,27.6,6.8c3.4-1.1,7.6-3.5,8.3-8.4c0.6-4.2-1.6-8.1-14.7-13.7c-1.2-0.5-2.3-1-3.2-1.4c-0.6-0.3-1.8-0.8-3.1-1.3
                                                                c-8.3-3.3-25.5-10.3-25.2-26.2c0.2-9.8,6.1-17.9,15.8-21.9c13.6-5.5,30.7-1.7,41.6,9.2c2.9,2.9,2.9,7.6,0,10.5
                                                                c-2.9,2.9-7.6,2.9-10.5,0c-7.6-7.6-18.6-8.7-25.6-5.9c-4.3,1.7-6.5,4.6-6.5,8.4c-0.1,5.7,10.3,9.9,15.9,12.2
                                                                c1.6,0.7,3.1,1.2,4.2,1.8c0.5,0.3,1.4,0.6,2.4,1.1c7.9,3.4,26.3,11.3,23.5,29.6c-1.4,9.5-8.1,16.9-18.3,20.3
                                                                C651.8,167.3,647.7,167.9,643.6,167.9z"></path>
                                                        </g>
                                                    </g>
                                                    <g>
                                                        <g>
                                                            <path class="st2" d="M360.5,166.3c-4.1,0-7.4-3.3-7.4-7.4v-74c0-4.1,3.3-7.4,7.4-7.4h30.4c16.6,0,28.7,11.6,28.7,27.7
                                                                c0,16-12.1,27.7-28.7,27.7h-23v26C367.9,163,364.6,166.3,360.5,166.3z M367.9,118.1h23c8.4,0,13.9-5.1,13.9-12.9
                                                                c0-7.8-5.4-12.9-13.9-12.9h-23V118.1z"></path>
                                                        </g>
                                                    </g>
                                                </g>
                                        </svg>